HIERARCHY
ROOT pelvis
{
  OFFSET 0 100 0
  CHANNELS 6 Xposition Yposition Zposition Zrotation Xrotation Yrotation
  JOINT pelvis_right_femur
  {
    OFFSET -10.78128 -3.44521 -0.5502486
    CHANNELS 3 Zrotation Xrotation Yrotation
    JOINT right_femur_tibia
    {
      OFFSET -0.8047443 -44.0398 -0.1307829
      CHANNELS 3 Zrotation Xrotation Yrotation
      JOINT right_tibia_foot
      {
        OFFSET 3.006224 -47.83518 -5
        CHANNELS 3 Zrotation Xrotation Yrotation
        End Site
        {
          OFFSET 0 -5 15
        }
      }
    }
  }
  JOINT pelvis_left_femur
  {
    OFFSET 10.78128 -3.44521 -0.5502486
    CHANNELS 3 Zrotation Xrotation Yrotation
    JOINT left_femur_tibia
    {
      OFFSET 0.8047443 -44.0398 -0.1307829
      CHANNELS 3 Zrotation Xrotation Yrotation
      JOINT left_tibia_foot
      {
        OFFSET -4.370144 -48.10324 -4.275266
        CHANNELS 3 Zrotation Xrotation Yrotation
        End Site
        {
          OFFSET 0 -5 15
        }
      }
    }
  }
  JOINT pelvis_spine1
  {
    OFFSET 0 6.468898 -3.129235
    CHANNELS 3 Zrotation Xrotation Yrotation
    JOINT spine1
    {
      OFFSET 0 23.15396 4.99043
      CHANNELS 3 Zrotation Xrotation Yrotation
      JOINT spine2
      {
        OFFSET 0 20.79997 -5.064912
        CHANNELS 3 Zrotation Xrotation Yrotation
        JOINT neck
        {
          OFFSET 0 14.38658 9.616178
          CHANNELS 3 Zrotation Xrotation Yrotation
          End Site
          {
            OFFSET 0 20 0
          }
        }
      }
      JOINT right_manubrium
      {
        OFFSET -5.722621 16.35077 3.967754
        CHANNELS 3 Zrotation Xrotation Yrotation
        JOINT right_clavicle
        {
          OFFSET -13.16364 1.694482 -4.693211
          CHANNELS 3 Zrotation Xrotation Yrotation
          JOINT right_humerus
          {
            OFFSET -28.5034 -0.3100689 -2.792744
            CHANNELS 3 Zrotation Xrotation Yrotation
            JOINT right_radius
            {
              OFFSET -25.15693 0.02248979 -1.271978
              CHANNELS 3 Zrotation Xrotation Yrotation
              End Site
              {
                OFFSET -15 0 0
              }
            }
          }
        }
      }
      JOINT left_manubrium
      {
        OFFSET 5.722621 16.35077 3.967754
        CHANNELS 3 Zrotation Xrotation Yrotation
        JOINT left_clavicle
        {
          OFFSET 13.16364 1.694482 -4.693211
          CHANNELS 3 Zrotation Xrotation Yrotation
          JOINT left_humerus
          {
            OFFSET 29.39168 -1.063119 -2.237045
            CHANNELS 3 Zrotation Xrotation Yrotation
            JOINT left_radius
            {
              OFFSET 24.59957 -0.9528479 0.9047498
              CHANNELS 3 Zrotation Xrotation Yrotation
              End Site
              {
                OFFSET 15 -0 -0
              }
            }
          }
        }
      }
    }
  }
}
MOTION
Frames: 13
Frame Time: 0.0416666666667
-1997.284 79.20289 1696.87 -16.47787 -0.08625204 -96.1292 1.250563 4.628718 3.725625 -0 32.57548 -0 -1.942764 -14.41571 -10.16022 -3.418244 0.6215189 -8.580514 -0 37.13014 -0 -9.161543 -11.54015 20.55691 -1.01528 2.156886 3.697807 -1.340489 7.676995 -2.718693 5.203816 27.52897 1.50607 -0.6374095 -10.3614 8.162184 -3.712412 -14.88474 8.349583 91.00389 11.87727 -11.72062 -0 0 14.04072 -19.73166 7.353672 6.70287 5.264876 -15.37796 -4.267506 -87.94012 26.99552 8.710639 0 0 -8.350109 -0.1704512 12.37293 11.60062
-2003.055 79.30634 1696.019 -16.43376 0.01950095 -96.45361 1.249915 4.951355 3.683799 -0 32.68168 -0 -1.959627 -14.40323 -10.0157 -3.397972 0.1844998 -8.562153 -0 36.82943 -0 -9.09867 -11.49363 20.60194 -0.9999293 2.158872 3.746964 -1.366835 7.690852 -2.664847 5.183165 27.51798 1.533972 -0.6243731 -10.41971 8.163998 -3.739851 -15.00033 8.362758 90.93758 11.86326 -11.54764 -0 0 14.21776 -19.81781 7.309212 6.800364 5.260053 -15.33294 -4.257293 -88.10405 26.9379 8.998885 0 0 -8.163151 -0.1368542 12.38803 11.57547
-2008.82 79.39756 1695.157 -16.38819 0.1231344 -96.77122 1.235793 5.206353 3.625667 -0 32.85826 -0 -1.984388 -14.36086 -9.877677 -3.390869 -0.1751258 -8.560349 -0 36.41751 -0 -9.021846 -11.47983 20.63365 -0.9886922 2.161247 3.779545 -1.392461 7.697287 -2.615284 5.164168 27.51051 1.563245 -0.6152705 -10.48076 8.173647 -3.774212 -15.10582 8.368334 90.88898 11.83952 -11.3818 -0 0 14.37752 -19.89872 7.25929 6.894819 5.259514 -15.28843 -4.250057 -88.253 26.87956 9.26076 0 0 -7.967685 -0.08716238 12.41459 11.53156
-2014.58 79.47562 1694.285 -16.34341 0.2228419 -97.07692 1.209379 5.380948 3.554041 -0 33.10018 -0 -2.016921 -14.28676 -9.752206 -3.397845 -0.4398048 -8.575476 -0 35.92126 -0 -8.934174 -11.498 20.65049 -0.9820994 2.163832 3.794 -1.415928 7.697036 -2.572632 5.147342 27.50688 1.593009 -0.6099928 -10.54269 8.190451 -3.812999 -15.19615 8.366747 90.86079 11.80844 -11.23213 -0 0 14.51052 -19.97046 7.206474 6.981848 5.262829 -15.24735 -4.246537 -88.38026 26.82268 9.484714 0 0 -7.773167 -0.02265602 12.45164 11.47002
-2020.334 79.54063 1693.402 -16.30121 0.3169914 -97.36619 1.172565 5.465309 3.472396 -0 33.39695 -0 -2.056067 -14.18142 -9.644637 -3.418778 -0.5975391 -8.606417 -0 35.37093 -0 -8.839277 -11.54624 20.65131 -0.9804316 2.166562 3.789903 -1.435839 7.691355 -2.539417 5.132853 27.50687 1.622554 -0.6081416 -10.60356 8.213196 -3.85317 -15.2673 8.359012 90.85412 11.77337 -11.10708 -0 0 14.60912 -20.02987 7.153914 7.057751 5.269477 -15.21281 -4.247363 -88.47976 26.76911 9.660896 0 0 -7.590591 0.05430258 12.49699 11.39326
-2026.082 79.59345 1692.508 -16.26292 0.4041836 -97.63536 1.127761 5.453433 3.384737 -0 33.73294 -0 -2.099603 -14.04839 -9.559503 -3.452447 -0.6424484 -8.650705 -0 34.79762 -0 -8.741281 -11.62172 20.63554 -0.98369 2.169489 3.767937 -1.45096 7.681701 -2.51783 5.120637 27.5098 1.651219 -0.6091815 -10.66124 8.240272 -3.89151 -15.31637 8.346489 90.86847 11.73809 -11.01388 -0 0 14.66817 -20.07469 7.105057 7.11959 5.278932 -15.1877 -4.25292 -88.54646 26.72052 9.781548 0 0 -7.431548 0.1401904 12.54741 11.30506
-2031.823 79.63534 1691.601 -16.22949 0.4833144 -97.88178 1.077677 5.343936 3.295408 -0 34.08825 -0 -2.14441 -13.89445 -9.500381 -3.496622 -0.5748707 -8.704832 -0 34.23086 -0 -8.644732 -11.72089 20.60333 -0.9915893 2.172737 3.729788 -1.460334 7.669434 -2.509493 5.11055 27.51469 1.678282 -0.6125876 -10.71337 8.269852 -3.925037 -15.34168 8.330631 90.90186 11.70619 -10.95784 -0 0 14.68545 -20.10346 7.063287 7.165201 5.290721 -15.17427 -4.26323 -88.57674 26.67848 9.841364 0 0 -7.307028 0.2304358 12.59896 11.21034
-2037.555 79.66759 1690.68 -16.20155 0.5536316 -98.10399 1.025096 5.140619 3.208854 -0 34.44038 -0 -2.186828 -13.72928 -9.469769 -3.548302 -0.4010155 -8.764697 -0 33.69693 -0 -8.554426 -11.83954 20.55564 -1.003583 2.176449 3.677976 -1.463365 7.655579 -2.515253 5.102512 27.52046 1.70287 -0.6179541 -10.75742 8.300075 -3.951361 -15.34275 8.31275 90.9512 11.68053 -10.94195 -0 0 14.66167 -20.11556 7.031564 7.193171 5.304443 -15.17381 -4.277891 -88.56871 26.64452 9.837774 0 0 -7.226168 0.3197297 12.64754 11.11482
-2043.28 79.69127 1689.743 -16.17955 0.6147803 -98.30173 0.9726769 4.852693 3.129361 -0 34.76621 -0 -2.223131 -13.56449 -9.468973 -3.60404 -0.1322446 -8.82608 -0 33.21793 -0 -8.47515 -11.97288 20.4943 -1.018919 2.18071 3.615636 -1.459871 7.640717 -2.535039 5.096609 27.52614 1.723933 -0.6250464 -10.79088 8.329214 -3.968945 -15.32022 8.293865 91.01263 11.66291 -10.96667 -0 0 14.6002 -20.11104 7.012093 7.202783 5.319751 -15.18648 -4.29607 -88.52246 26.62009 9.771117 0 0 -7.195159 0.4024944 12.68936 11.02447
-2048.996 79.70717 1688.788 -16.16393 0.6668305 -98.476 0.9228059 4.49456 3.060817 -0 35.04428 -0 -2.250043 -13.41227 -9.498027 -3.660312 0.2159053 -8.885083 -0 32.81157 -0 -8.411347 -12.11548 20.422 -1.036715 2.185488 3.546276 -1.450108 7.625 -2.56782 5.093138 27.531 1.740277 -0.6337911 -10.81147 8.355802 -3.977229 -15.27571 8.274637 91.08208 11.65382 -11.0299 -0 0 14.50645 -20.09059 7.006094 7.193965 5.336301 -15.21128 -4.316579 -88.44017 26.6065 9.64467 0 0 -7.216493 0.473435 12.72144 10.94496
-2054.703 79.71581 1687.813 -16.15519 0.7102875 -98.629 0.8775106 4.085138 3.006499 -0 35.25698 -0 -2.265198 -13.28391 -9.555653 -3.713843 0.6248295 -8.938467 -0 32.49141 -0 -8.366748 -12.26139 20.34228 -1.056036 2.190599 3.473542 -1.434753 7.608286 -2.611653 5.092583 27.53475 1.750665 -0.6442127 -10.81738 8.378698 -3.976597 -15.21167 8.25541 91.15561 11.65254 -11.12726 -0 0 14.38718 -20.05545 7.013688 7.167252 5.353691 -15.24618 -4.337993 -88.32596 26.60478 9.464522 0 0 -7.288658 0.5280742 12.74187 10.88105
-2060.405 79.71767 1686.815 -16.15394 0.7460835 -98.7639 0.8384388 3.646739 2.968924 -0 35.39229 -0 -2.267454 -13.18845 -9.639272 -3.761857 1.073966 -8.983849 -0 32.26744 -0 -8.344035 -12.40414 20.25933 -1.075963 2.195707 3.400997 -1.414848 7.590345 -2.663832 5.095521 27.53748 1.753975 -0.6563391 -10.80754 8.39711 -3.96821 -15.13125 8.236317 91.22972 11.6574 -11.25252 -0 0 14.24973 -20.00735 7.033922 7.123765 5.371392 -15.28841 -4.358821 -88.18577 26.6155 9.239329 0 0 -7.406311 0.5631812 12.75001 10.83624
-2066.101 79.71344 1685.792 -16.16086 0.7755509 -98.88477 0.8068844 3.203595 2.949749 -0 35.44482 -0 -2.257018 -13.13168 -9.745073 -3.802221 1.541821 -9.019755 -0 32.1465 -0 -8.344577 -12.537 20.17783 -1.095623 2.200369 3.331945 -1.39171 7.571077 -2.72112 5.102487 27.53966 1.749372 -0.6700981 -10.78175 8.410571 -3.953742 -15.03812 8.217441 91.30147 11.66614 -11.39813 -0 0 14.10146 -19.94847 7.06492 7.065212 5.388719 -15.33478 -4.377666 -88.02692 26.6387 8.979945 0 0 -7.560873 0.5770285 12.74642 10.81251
